<svg xmlns="http://www.w3.org/2000/svg" width="871" height="138" viewBox="0 0 871 138"><g fill="#FFF" fill-rule="evenodd" transform="translate(0 -.104)"><path d="M0,0 L128,0 L128,128 L0,128 Z M0,88 L128,88 L128,104 L0,104 L0,88 Z M0,64 L128,64 L128,72 L0,72 Z M0,40 L128,40 L128,48 L0,48 Z M0,16 L128,16 L128,24 L0,24 Z"/><g transform="translate(176 17.14)"><polygon fill-rule="nonzero" points="34.056 92.928 48.312 92.928 48.312 12.408 82.368 12.408 82.368 0 0 0 0 12.408 34.056 12.408"/><path fill-rule="nonzero" d="M106.22 94.512C124.304 94.512 135.788 85.668 138.164 73.128L123.776 73.128C121.928 78.276 116.78 81.708 106.22 81.708 94.472 81.708 86.42 75.768 85.496 64.68L139.616 64.68C141.86 42.504 129.716 24.552 106.22 24.552 85.76 24.552 71.768 38.28 71.768 60.456 71.768 81.048 83.912 94.512 106.22 94.512ZM105.824 37.356C117.176 37.356 124.04 42.768 125.492 53.46L85.496 53.46C86.816 42.372 95 37.356 105.824 37.356ZM149.872 92.928 163.6 92.928 163.6 58.476C163.6 47.652 169.276 39.996 180.892 39.996L194.488 39.996 194.488 26.136 185.248 26.136C174.424 26.136 167.164 31.812 163.6 39.336L163.6 26.136 149.872 26.136 149.872 92.928ZM200.784 92.928 214.512 92.928 214.512 52.14C214.512 40.92 222.564 36.96 229.956 36.96 238.14 36.96 245.4 41.052 245.4 52.14L245.4 92.928 259.128 92.928 259.128 52.14C259.128 42.768 265.992 36.96 274.44 36.96 283.02 36.96 290.016 41.052 290.016 52.14L290.016 92.928 303.744 92.928 303.744 52.14C303.744 30.756 289.092 24.552 277.08 24.552 267.18 24.552 258.204 28.512 253.98 36.3 249.888 27.588 241.704 24.552 233.652 24.552 224.94 24.552 218.34 27.324 214.512 34.056L214.512 26.136 200.784 26.136 200.784 92.928ZM353.072 94.512C370.892 94.512 385.28 83.028 385.28 59.4 385.28 35.376 370.232 24.552 353.468 24.552 343.832 24.552 335.648 28.116 330.632 34.452L330.632 0 316.904 0 316.904 92.928 330.632 92.928 330.632 83.952C334.46 89.76 341.456 94.512 353.072 94.512ZM350.828 81.708C340.268 81.708 330.368 75.504 330.368 59.4 330.368 42.24 340.664 37.356 351.092 37.356 362.576 37.356 370.76 43.428 370.76 58.872 370.76 73.656 363.236 81.708 350.828 81.708ZM395.272 92.928 409 92.928 409 58.476C409 47.652 414.676 39.996 426.292 39.996L439.888 39.996 439.888 26.136 430.648 26.136C419.824 26.136 412.564 31.812 409 39.336L409 26.136 395.272 26.136 395.272 92.928ZM445.524 14.52 460.572 14.52 460.572 0 445.524 0 445.524 14.52ZM446.184 92.928 459.912 92.928 459.912 26.136 446.184 26.136 446.184 92.928ZM502.244 94.512C513.464 94.512 520.592 89.76 524.552 84.084L524.552 92.928 538.28 92.928 538.28 0 524.552 0 524.552 34.452C519.536 28.116 511.484 24.552 502.112 24.552 485.612 24.552 469.904 35.904 469.904 59.928 469.904 83.028 484.82 94.512 502.244 94.512ZM504.356 81.708C491.948 81.708 483.764 73.128 483.764 59.664 483.764 44.88 492.608 37.356 504.092 37.356 514.388 37.356 524.816 43.428 524.816 60.192 524.816 75.504 514.916 81.708 504.356 81.708ZM580.612 120.648C602.524 120.648 616.384 107.052 616.384 85.14L616.384 26.136 602.656 26.136 602.656 34.584C598.696 29.04 591.568 24.552 579.952 24.552 562.396 24.552 548.272 36.432 548.272 57.948 548.272 80.52 562.66 91.608 579.292 91.608 589.456 91.608 598.168 87.516 602.656 80.784 602.392 97.68 596.848 107.976 580.084 107.976 569.656 107.976 564.244 104.28 563.188 98.208L548.8 98.208C550.384 111.672 562.132 120.648 580.612 120.648ZM582.196 78.804C570.712 78.804 562.792 71.676 562.792 58.212 562.792 46.2 570.052 37.356 582.46 37.356 593.152 37.356 602.92 43.956 602.92 57.684 602.92 72.996 592.624 78.804 582.196 78.804ZM661.092 94.512C679.176 94.512 690.66 85.668 693.036 73.128L678.648 73.128C676.8 78.276 671.652 81.708 661.092 81.708 649.344 81.708 641.292 75.768 640.368 64.68L694.488 64.68C696.732 42.504 684.588 24.552 661.092 24.552 640.632 24.552 626.64 38.28 626.64 60.456 626.64 81.048 638.784 94.512 661.092 94.512ZM660.696 37.356C672.048 37.356 678.912 42.768 680.364 53.46L640.368 53.46C641.688 42.372 649.872 37.356 660.696 37.356Z"/></g></g></svg>